<svg xmlns="http://www.w3.org/2000/svg" xmlns:xlink="http://www.w3.org/1999/xlink" width="400" zoomAndPan="magnify" viewBox="0 0 300 187.499995" height="250" preserveAspectRatio="xMidYMid meet" version="1.0"><defs><g/><clipPath id="ee9f66e7f9"><path d="M 166.671875 79.136719 L 178.648438 79.136719 L 178.648438 96.820312 L 166.671875 96.820312 Z M 166.671875 79.136719 " clip-rule="nonzero"/></clipPath><clipPath id="3cf8233c26"><path d="M 172.660156 79.136719 C 169.351562 79.136719 166.671875 83.089844 166.671875 87.964844 C 166.671875 92.84375 169.351562 96.796875 172.660156 96.796875 C 175.964844 96.796875 178.648438 92.84375 178.648438 87.964844 C 178.648438 83.089844 175.964844 79.136719 172.660156 79.136719 Z M 172.660156 79.136719 " clip-rule="nonzero"/></clipPath><clipPath id="74c0cbff89"><path d="M 109.957031 79.136719 L 121.933594 79.136719 L 121.933594 96.820312 L 109.957031 96.820312 Z M 109.957031 79.136719 " clip-rule="nonzero"/></clipPath><clipPath id="5c34f1688f"><path d="M 115.945312 79.136719 C 112.636719 79.136719 109.957031 83.089844 109.957031 87.964844 C 109.957031 92.84375 112.636719 96.796875 115.945312 96.796875 C 119.253906 96.796875 121.933594 92.84375 121.933594 87.964844 C 121.933594 83.089844 119.253906 79.136719 115.945312 79.136719 Z M 115.945312 79.136719 " clip-rule="nonzero"/></clipPath></defs><g fill="#00e0b6" fill-opacity="1"><g transform="translate(103.846291, 103.454622)"><g><path d="M 26.390625 -15.5625 C 26.390625 -16.957031 26.171875 -18.273438 25.734375 -19.515625 C 25.296875 -20.703125 24.695312 -21.757812 23.9375 -22.6875 C 23.65625 -22.957031 23.375 -23.222656 23.09375 -23.484375 C 22.820312 -23.742188 22.523438 -23.984375 22.203125 -24.203125 C 21.878906 -24.421875 21.539062 -24.613281 21.1875 -24.78125 C 20.707031 -25.050781 20.1875 -25.242188 19.625 -25.359375 C 19.070312 -25.484375 18.492188 -25.546875 17.890625 -25.546875 C 15.222656 -25.546875 13.148438 -24.691406 11.671875 -22.984375 C 10.148438 -21.179688 9.390625 -18.742188 9.390625 -15.671875 C 9.390625 -14.273438 9.609375 -12.960938 10.046875 -11.734375 C 10.128906 -11.535156 10.207031 -11.332031 10.28125 -11.125 C 10.363281 -10.925781 10.457031 -10.726562 10.5625 -10.53125 C 10.664062 -10.332031 10.765625 -10.140625 10.859375 -9.953125 C 10.960938 -9.773438 11.0625 -9.609375 11.15625 -9.453125 C 11.257812 -9.296875 11.367188 -9.125 11.484375 -8.9375 C 11.609375 -8.757812 11.75 -8.613281 11.90625 -8.5 C 12.144531 -8.175781 12.40625 -7.882812 12.6875 -7.625 C 12.96875 -7.363281 13.265625 -7.125 13.578125 -6.90625 C 13.898438 -6.6875 14.242188 -6.5 14.609375 -6.34375 C 15.078125 -6.0625 15.59375 -5.859375 16.15625 -5.734375 C 16.71875 -5.617188 17.296875 -5.5625 17.890625 -5.5625 C 19.242188 -5.5625 20.441406 -5.800781 21.484375 -6.28125 C 22.003906 -6.519531 22.472656 -6.796875 22.890625 -7.109375 C 23.304688 -7.429688 23.695312 -7.816406 24.0625 -8.265625 C 24.8125 -9.097656 25.390625 -10.132812 25.796875 -11.375 C 26.191406 -12.601562 26.390625 -14 26.390625 -15.5625 Z M 0.890625 -15.5625 C 0.890625 -18.269531 1.332031 -20.722656 2.21875 -22.921875 C 3.09375 -25.117188 4.285156 -26.984375 5.796875 -28.515625 C 7.316406 -30.046875 9.113281 -31.234375 11.1875 -32.078125 C 13.257812 -32.910156 15.492188 -33.328125 17.890625 -33.328125 C 18.492188 -33.328125 19.070312 -33.296875 19.625 -33.234375 C 20.1875 -33.179688 20.742188 -33.101562 21.296875 -33 C 21.859375 -32.90625 22.410156 -32.773438 22.953125 -32.609375 C 23.492188 -32.453125 24.019531 -32.273438 24.53125 -32.078125 C 25.570312 -31.679688 26.539062 -31.179688 27.4375 -30.578125 C 28.332031 -29.984375 29.179688 -29.304688 29.984375 -28.546875 C 31.492188 -26.992188 32.691406 -25.117188 33.578125 -22.921875 C 34.453125 -20.765625 34.890625 -18.347656 34.890625 -15.671875 C 34.890625 -13.003906 34.46875 -10.570312 33.625 -8.375 C 32.75 -6.1875 31.554688 -4.3125 30.046875 -2.75 C 29.285156 -1.957031 28.445312 -1.25 27.53125 -0.625 C 26.613281 -0.0078125 25.632812 0.515625 24.59375 0.953125 C 22.519531 1.796875 20.285156 2.21875 17.890625 2.21875 C 16.691406 2.21875 15.523438 2.109375 14.390625 1.890625 C 13.253906 1.671875 12.164062 1.335938 11.125 0.890625 C 9.050781 0.015625 7.253906 -1.207031 5.734375 -2.78125 C 4.222656 -4.351562 3.03125 -6.238281 2.15625 -8.4375 C 1.3125 -10.59375 0.890625 -12.96875 0.890625 -15.5625 Z M 0.890625 -15.5625 "/></g></g></g><g fill="#00e0b6" fill-opacity="1"><g transform="translate(139.630826, 103.454622)"><g><path d="M 11.375 -10.296875 C 11.375 -8.492188 11.691406 -7.21875 12.328125 -6.46875 C 12.921875 -5.789062 13.800781 -5.453125 14.96875 -5.453125 C 15.601562 -5.453125 16.21875 -5.53125 16.8125 -5.6875 C 17.457031 -5.84375 18.015625 -6.019531 18.484375 -6.21875 L 20.046875 -6.875 L 20.53125 -5.265625 L 21.84375 -0.890625 L 22.203125 0.359375 L 21 0.890625 C 20.207031 1.253906 19.234375 1.554688 18.078125 1.796875 C 16.921875 2.078125 15.644531 2.21875 14.25 2.21875 C 12.6875 2.21875 11.226562 2 9.875 1.5625 C 8.519531 1.082031 7.320312 0.34375 6.28125 -0.65625 C 5.25 -1.65625 4.429688 -2.910156 3.828125 -4.421875 C 3.273438 -5.898438 3 -7.675781 3 -9.75 L 3 -45.78125 L 11.375 -45.78125 Z M 11.375 -10.296875 "/></g></g></g><g fill="#00e0b6" fill-opacity="1"><g transform="translate(160.335595, 103.454622)"><g><path d="M 26.390625 -15.5625 C 26.390625 -16.957031 26.171875 -18.273438 25.734375 -19.515625 C 25.296875 -20.703125 24.695312 -21.757812 23.9375 -22.6875 C 23.65625 -22.957031 23.375 -23.222656 23.09375 -23.484375 C 22.820312 -23.742188 22.523438 -23.984375 22.203125 -24.203125 C 21.878906 -24.421875 21.539062 -24.613281 21.1875 -24.78125 C 20.707031 -25.050781 20.1875 -25.242188 19.625 -25.359375 C 19.070312 -25.484375 18.492188 -25.546875 17.890625 -25.546875 C 15.222656 -25.546875 13.148438 -24.691406 11.671875 -22.984375 C 10.148438 -21.179688 9.390625 -18.742188 9.390625 -15.671875 C 9.390625 -14.273438 9.609375 -12.960938 10.046875 -11.734375 C 10.128906 -11.535156 10.207031 -11.332031 10.28125 -11.125 C 10.363281 -10.925781 10.457031 -10.726562 10.5625 -10.53125 C 10.664062 -10.332031 10.765625 -10.140625 10.859375 -9.953125 C 10.960938 -9.773438 11.0625 -9.609375 11.15625 -9.453125 C 11.257812 -9.296875 11.367188 -9.125 11.484375 -8.9375 C 11.609375 -8.757812 11.75 -8.613281 11.90625 -8.5 C 12.144531 -8.175781 12.40625 -7.882812 12.6875 -7.625 C 12.96875 -7.363281 13.265625 -7.125 13.578125 -6.90625 C 13.898438 -6.6875 14.242188 -6.5 14.609375 -6.34375 C 15.078125 -6.0625 15.59375 -5.859375 16.15625 -5.734375 C 16.71875 -5.617188 17.296875 -5.5625 17.890625 -5.5625 C 19.242188 -5.5625 20.441406 -5.800781 21.484375 -6.28125 C 22.003906 -6.519531 22.472656 -6.796875 22.890625 -7.109375 C 23.304688 -7.429688 23.695312 -7.816406 24.0625 -8.265625 C 24.8125 -9.097656 25.390625 -10.132812 25.796875 -11.375 C 26.191406 -12.601562 26.390625 -14 26.390625 -15.5625 Z M 0.890625 -15.5625 C 0.890625 -18.269531 1.332031 -20.722656 2.21875 -22.921875 C 3.09375 -25.117188 4.285156 -26.984375 5.796875 -28.515625 C 7.316406 -30.046875 9.113281 -31.234375 11.1875 -32.078125 C 13.257812 -32.910156 15.492188 -33.328125 17.890625 -33.328125 C 18.492188 -33.328125 19.070312 -33.296875 19.625 -33.234375 C 20.1875 -33.179688 20.742188 -33.101562 21.296875 -33 C 21.859375 -32.90625 22.410156 -32.773438 22.953125 -32.609375 C 23.492188 -32.453125 24.019531 -32.273438 24.53125 -32.078125 C 25.570312 -31.679688 26.539062 -31.179688 27.4375 -30.578125 C 28.332031 -29.984375 29.179688 -29.304688 29.984375 -28.546875 C 31.492188 -26.992188 32.691406 -25.117188 33.578125 -22.921875 C 34.453125 -20.765625 34.890625 -18.347656 34.890625 -15.671875 C 34.890625 -13.003906 34.46875 -10.570312 33.625 -8.375 C 32.75 -6.1875 31.554688 -4.3125 30.046875 -2.75 C 29.285156 -1.957031 28.445312 -1.25 27.53125 -0.625 C 26.613281 -0.0078125 25.632812 0.515625 24.59375 0.953125 C 22.519531 1.796875 20.285156 2.21875 17.890625 2.21875 C 16.691406 2.21875 15.523438 2.109375 14.390625 1.890625 C 13.253906 1.671875 12.164062 1.335938 11.125 0.890625 C 9.050781 0.015625 7.253906 -1.207031 5.734375 -2.78125 C 4.222656 -4.351562 3.03125 -6.238281 2.15625 -8.4375 C 1.3125 -10.59375 0.890625 -12.96875 0.890625 -15.5625 Z M 0.890625 -15.5625 "/></g></g></g><g fill="#00e0b6" fill-opacity="1"><g transform="translate(170.544323, 128.892645)"><g><path d="M -32.25 -12.09375 C -28.257812 -11.09375 -23.890625 -10.59375 -19.140625 -10.59375 C -14.398438 -10.59375 -10.054688 -11.09375 -6.109375 -12.09375 C -2.117188 -13.125 1.570312 -14.378906 4.96875 -15.859375 L 6.21875 -16.390625 L 6.875 -15.203125 L 8.671875 -12.03125 L 9.390625 -10.765625 L 8.078125 -10 C 3.566406 -7.4375 -0.878906 -5.457031 -5.265625 -4.0625 C -9.691406 -2.632812 -14.320312 -1.921875 -19.15625 -1.921875 C -24.257812 -1.921875 -29.023438 -2.632812 -33.453125 -4.0625 C -37.796875 -5.5 -42.125 -7.476562 -46.4375 -10 L -47.703125 -10.765625 L -46.984375 -12.03125 L -45.1875 -15.203125 L -44.53125 -16.390625 L -43.265625 -15.859375 C -39.953125 -14.378906 -36.28125 -13.125 -32.25 -12.09375 Z M -32.25 -12.09375 "/></g></g></g><g clip-path="url(#ee9f66e7f9)"><g clip-path="url(#3cf8233c26)"><path fill="#00e0b6" d="M 166.671875 79.136719 L 178.648438 79.136719 L 178.648438 96.820312 L 166.671875 96.820312 Z M 166.671875 79.136719 " fill-opacity="1" fill-rule="nonzero"/></g></g><g clip-path="url(#74c0cbff89)"><g clip-path="url(#5c34f1688f)"><path fill="#00e0b6" d="M 109.957031 79.136719 L 121.933594 79.136719 L 121.933594 96.820312 L 109.957031 96.820312 Z M 109.957031 79.136719 " fill-opacity="1" fill-rule="nonzero"/></g></g></svg>