<svg xmlns="http://www.w3.org/2000/svg" xmlns:xlink="http://www.w3.org/1999/xlink" width="400" zoomAndPan="magnify" viewBox="0 0 300 187.499995" height="250" preserveAspectRatio="xMidYMid meet" version="1.0"><defs><g/><clipPath id="4d9f1cfbba"><path d="M 192.277344 88.628906 L 204.253906 88.628906 L 204.253906 106.3125 L 192.277344 106.3125 Z M 192.277344 88.628906 " clip-rule="nonzero"/></clipPath><clipPath id="2b9869c9b0"><path d="M 198.265625 88.628906 C 194.960938 88.628906 192.277344 92.582031 192.277344 97.460938 C 192.277344 102.335938 194.960938 106.289062 198.265625 106.289062 C 201.574219 106.289062 204.253906 102.335938 204.253906 97.460938 C 204.253906 92.582031 201.574219 88.628906 198.265625 88.628906 Z M 198.265625 88.628906 " clip-rule="nonzero"/></clipPath><clipPath id="058987a32b"><path d="M 135.566406 88.628906 L 147.539062 88.628906 L 147.539062 106.3125 L 135.566406 106.3125 Z M 135.566406 88.628906 " clip-rule="nonzero"/></clipPath><clipPath id="1b719d9681"><path d="M 141.554688 88.628906 C 138.246094 88.628906 135.566406 92.582031 135.566406 97.460938 C 135.566406 102.335938 138.246094 106.289062 141.554688 106.289062 C 144.859375 106.289062 147.539062 102.335938 147.539062 97.460938 C 147.539062 92.582031 144.859375 88.628906 141.554688 88.628906 Z M 141.554688 88.628906 " clip-rule="nonzero"/></clipPath></defs><g fill="#00e0b6" fill-opacity="1"><g transform="translate(88.208306, 112.948795)"><g><path d="M 5.625 15.375 C 5.507812 15.375 5.378906 15.375 5.234375 15.375 C 5.097656 15.375 4.96875 15.375 4.84375 15.375 C 4.726562 15.375 4.609375 15.363281 4.484375 15.34375 C 4.367188 15.320312 4.25 15.3125 4.125 15.3125 C 4.007812 15.3125 3.890625 15.300781 3.765625 15.28125 C 3.648438 15.269531 3.53125 15.253906 3.40625 15.234375 C 3.289062 15.210938 3.179688 15.191406 3.078125 15.171875 C 2.984375 15.148438 2.875 15.128906 2.75 15.109375 C 2.632812 15.085938 2.523438 15.066406 2.421875 15.046875 C 2.328125 15.023438 2.21875 15 2.09375 14.96875 C 1.0625 14.6875 0.222656 14.34375 -0.421875 13.9375 L -1.375 13.40625 L -1.078125 12.328125 L 0.125 7.84375 L 0.59375 5.921875 L 2.34375 6.875 C 2.695312 7.113281 3.15625 7.316406 3.71875 7.484375 C 4.3125 7.640625 4.988281 7.71875 5.75 7.71875 C 6.101562 7.71875 6.429688 7.695312 6.734375 7.65625 C 7.035156 7.613281 7.34375 7.535156 7.65625 7.421875 C 7.894531 7.335938 8.15625 7.21875 8.4375 7.0625 C 8.71875 6.90625 8.976562 6.707031 9.21875 6.46875 C 9.8125 5.988281 10.367188 5.289062 10.890625 4.375 C 11.453125 3.414062 12.03125 2.195312 12.625 0.71875 L 13.234375 -0.84375 L 11.546875 -0.84375 L 11.140625 -1.734375 L -1.015625 -29.078125 L -1.609375 -30.453125 L -0.234375 -31.0625 L 4.546875 -33.21875 L 5.921875 -33.8125 L 6.53125 -32.4375 L 16.578125 -9.9375 L 24.359375 -32.078125 L 24.890625 -33.578125 L 26.328125 -32.96875 L 31.296875 -31.0625 L 32.671875 -30.515625 L 32.140625 -29.140625 L 20.703125 2.09375 C 20.546875 2.570312 20.378906 3.039062 20.203125 3.5 C 20.023438 3.957031 19.832031 4.40625 19.625 4.84375 C 19.425781 5.28125 19.226562 5.695312 19.03125 6.09375 C 18.832031 6.5 18.632812 6.878906 18.4375 7.234375 C 18.238281 7.597656 18.039062 7.957031 17.84375 8.3125 C 17.320312 9.15625 16.769531 9.925781 16.1875 10.625 C 15.613281 11.320312 15.003906 11.929688 14.359375 12.453125 C 13.722656 13.003906 13.054688 13.46875 12.359375 13.84375 C 11.660156 14.226562 10.953125 14.519531 10.234375 14.71875 C 8.796875 15.15625 7.257812 15.375 5.625 15.375 Z M 5.625 15.375 "/></g></g></g><g fill="#00e0b6" fill-opacity="1"><g transform="translate(119.504821, 112.948795)"><g><path d="M 26.390625 -15.5625 C 26.390625 -16.957031 26.171875 -18.273438 25.734375 -19.515625 C 25.296875 -20.703125 24.695312 -21.757812 23.9375 -22.6875 C 23.65625 -22.957031 23.375 -23.222656 23.09375 -23.484375 C 22.820312 -23.742188 22.523438 -23.984375 22.203125 -24.203125 C 21.878906 -24.421875 21.539062 -24.613281 21.1875 -24.78125 C 20.707031 -25.050781 20.1875 -25.242188 19.625 -25.359375 C 19.070312 -25.484375 18.492188 -25.546875 17.890625 -25.546875 C 15.222656 -25.546875 13.148438 -24.691406 11.671875 -22.984375 C 10.148438 -21.179688 9.390625 -18.742188 9.390625 -15.671875 C 9.390625 -14.273438 9.609375 -12.960938 10.046875 -11.734375 C 10.128906 -11.535156 10.207031 -11.332031 10.28125 -11.125 C 10.363281 -10.925781 10.457031 -10.726562 10.5625 -10.53125 C 10.664062 -10.332031 10.765625 -10.140625 10.859375 -9.953125 C 10.960938 -9.773438 11.0625 -9.609375 11.15625 -9.453125 C 11.257812 -9.296875 11.367188 -9.125 11.484375 -8.9375 C 11.609375 -8.757812 11.75 -8.613281 11.90625 -8.5 C 12.144531 -8.175781 12.40625 -7.882812 12.6875 -7.625 C 12.96875 -7.363281 13.265625 -7.125 13.578125 -6.90625 C 13.898438 -6.6875 14.242188 -6.5 14.609375 -6.34375 C 15.078125 -6.0625 15.59375 -5.859375 16.15625 -5.734375 C 16.71875 -5.617188 17.296875 -5.5625 17.890625 -5.5625 C 19.242188 -5.5625 20.441406 -5.800781 21.484375 -6.28125 C 22.003906 -6.519531 22.472656 -6.796875 22.890625 -7.109375 C 23.304688 -7.429688 23.695312 -7.816406 24.0625 -8.265625 C 24.8125 -9.097656 25.390625 -10.132812 25.796875 -11.375 C 26.191406 -12.601562 26.390625 -14 26.390625 -15.5625 Z M 0.890625 -15.5625 C 0.890625 -18.269531 1.332031 -20.722656 2.21875 -22.921875 C 3.09375 -25.117188 4.285156 -26.984375 5.796875 -28.515625 C 7.316406 -30.046875 9.113281 -31.234375 11.1875 -32.078125 C 13.257812 -32.910156 15.492188 -33.328125 17.890625 -33.328125 C 18.492188 -33.328125 19.070312 -33.296875 19.625 -33.234375 C 20.1875 -33.179688 20.742188 -33.101562 21.296875 -33 C 21.859375 -32.90625 22.410156 -32.773438 22.953125 -32.609375 C 23.492188 -32.453125 24.019531 -32.273438 24.53125 -32.078125 C 25.570312 -31.679688 26.539062 -31.179688 27.4375 -30.578125 C 28.332031 -29.984375 29.179688 -29.304688 29.984375 -28.546875 C 31.492188 -26.992188 32.691406 -25.117188 33.578125 -22.921875 C 34.453125 -20.765625 34.890625 -18.347656 34.890625 -15.671875 C 34.890625 -13.003906 34.46875 -10.570312 33.625 -8.375 C 32.75 -6.1875 31.554688 -4.3125 30.046875 -2.75 C 29.285156 -1.957031 28.445312 -1.25 27.53125 -0.625 C 26.613281 -0.0078125 25.632812 0.515625 24.59375 0.953125 C 22.519531 1.796875 20.285156 2.21875 17.890625 2.21875 C 16.691406 2.21875 15.523438 2.109375 14.390625 1.890625 C 13.253906 1.671875 12.164062 1.335938 11.125 0.890625 C 9.050781 0.015625 7.253906 -1.207031 5.734375 -2.78125 C 4.222656 -4.351562 3.03125 -6.238281 2.15625 -8.4375 C 1.3125 -10.59375 0.890625 -12.96875 0.890625 -15.5625 Z M 0.890625 -15.5625 "/></g></g></g><g fill="#00e0b6" fill-opacity="1"><g transform="translate(155.289356, 112.948795)"><g><path d="M 11.375 -10.296875 C 11.375 -8.492188 11.691406 -7.21875 12.328125 -6.46875 C 12.921875 -5.789062 13.800781 -5.453125 14.96875 -5.453125 C 15.601562 -5.453125 16.21875 -5.53125 16.8125 -5.6875 C 17.457031 -5.84375 18.015625 -6.019531 18.484375 -6.21875 L 20.046875 -6.875 L 20.53125 -5.265625 L 21.84375 -0.890625 L 22.203125 0.359375 L 21 0.890625 C 20.207031 1.253906 19.234375 1.554688 18.078125 1.796875 C 16.921875 2.078125 15.644531 2.21875 14.25 2.21875 C 12.6875 2.21875 11.226562 2 9.875 1.5625 C 8.519531 1.082031 7.320312 0.34375 6.28125 -0.65625 C 5.25 -1.65625 4.429688 -2.910156 3.828125 -4.421875 C 3.273438 -5.898438 3 -7.675781 3 -9.75 L 3 -45.78125 L 11.375 -45.78125 Z M 11.375 -10.296875 "/></g></g></g><g fill="#00e0b6" fill-opacity="1"><g transform="translate(175.994125, 112.948795)"><g><path d="M 26.390625 -15.5625 C 26.390625 -16.957031 26.171875 -18.273438 25.734375 -19.515625 C 25.296875 -20.703125 24.695312 -21.757812 23.9375 -22.6875 C 23.65625 -22.957031 23.375 -23.222656 23.09375 -23.484375 C 22.820312 -23.742188 22.523438 -23.984375 22.203125 -24.203125 C 21.878906 -24.421875 21.539062 -24.613281 21.1875 -24.78125 C 20.707031 -25.050781 20.1875 -25.242188 19.625 -25.359375 C 19.070312 -25.484375 18.492188 -25.546875 17.890625 -25.546875 C 15.222656 -25.546875 13.148438 -24.691406 11.671875 -22.984375 C 10.148438 -21.179688 9.390625 -18.742188 9.390625 -15.671875 C 9.390625 -14.273438 9.609375 -12.960938 10.046875 -11.734375 C 10.128906 -11.535156 10.207031 -11.332031 10.28125 -11.125 C 10.363281 -10.925781 10.457031 -10.726562 10.5625 -10.53125 C 10.664062 -10.332031 10.765625 -10.140625 10.859375 -9.953125 C 10.960938 -9.773438 11.0625 -9.609375 11.15625 -9.453125 C 11.257812 -9.296875 11.367188 -9.125 11.484375 -8.9375 C 11.609375 -8.757812 11.75 -8.613281 11.90625 -8.5 C 12.144531 -8.175781 12.40625 -7.882812 12.6875 -7.625 C 12.96875 -7.363281 13.265625 -7.125 13.578125 -6.90625 C 13.898438 -6.6875 14.242188 -6.5 14.609375 -6.34375 C 15.078125 -6.0625 15.59375 -5.859375 16.15625 -5.734375 C 16.71875 -5.617188 17.296875 -5.5625 17.890625 -5.5625 C 19.242188 -5.5625 20.441406 -5.800781 21.484375 -6.28125 C 22.003906 -6.519531 22.472656 -6.796875 22.890625 -7.109375 C 23.304688 -7.429688 23.695312 -7.816406 24.0625 -8.265625 C 24.8125 -9.097656 25.390625 -10.132812 25.796875 -11.375 C 26.191406 -12.601562 26.390625 -14 26.390625 -15.5625 Z M 0.890625 -15.5625 C 0.890625 -18.269531 1.332031 -20.722656 2.21875 -22.921875 C 3.09375 -25.117188 4.285156 -26.984375 5.796875 -28.515625 C 7.316406 -30.046875 9.113281 -31.234375 11.1875 -32.078125 C 13.257812 -32.910156 15.492188 -33.328125 17.890625 -33.328125 C 18.492188 -33.328125 19.070312 -33.296875 19.625 -33.234375 C 20.1875 -33.179688 20.742188 -33.101562 21.296875 -33 C 21.859375 -32.90625 22.410156 -32.773438 22.953125 -32.609375 C 23.492188 -32.453125 24.019531 -32.273438 24.53125 -32.078125 C 25.570312 -31.679688 26.539062 -31.179688 27.4375 -30.578125 C 28.332031 -29.984375 29.179688 -29.304688 29.984375 -28.546875 C 31.492188 -26.992188 32.691406 -25.117188 33.578125 -22.921875 C 34.453125 -20.765625 34.890625 -18.347656 34.890625 -15.671875 C 34.890625 -13.003906 34.46875 -10.570312 33.625 -8.375 C 32.75 -6.1875 31.554688 -4.3125 30.046875 -2.75 C 29.285156 -1.957031 28.445312 -1.25 27.53125 -0.625 C 26.613281 -0.0078125 25.632812 0.515625 24.59375 0.953125 C 22.519531 1.796875 20.285156 2.21875 17.890625 2.21875 C 16.691406 2.21875 15.523438 2.109375 14.390625 1.890625 C 13.253906 1.671875 12.164062 1.335938 11.125 0.890625 C 9.050781 0.015625 7.253906 -1.207031 5.734375 -2.78125 C 4.222656 -4.351562 3.03125 -6.238281 2.15625 -8.4375 C 1.3125 -10.59375 0.890625 -12.96875 0.890625 -15.5625 Z M 0.890625 -15.5625 "/></g></g></g><g fill="#00e0b6" fill-opacity="1"><g transform="translate(185.504429, 138.386819)"><g><path d="M -32.25 -12.09375 C -28.257812 -11.09375 -23.890625 -10.59375 -19.140625 -10.59375 C -14.398438 -10.59375 -10.054688 -11.09375 -6.109375 -12.09375 C -2.117188 -13.125 1.570312 -14.378906 4.96875 -15.859375 L 6.21875 -16.390625 L 6.875 -15.203125 L 8.671875 -12.03125 L 9.390625 -10.765625 L 8.078125 -10 C 3.566406 -7.4375 -0.878906 -5.457031 -5.265625 -4.0625 C -9.691406 -2.632812 -14.320312 -1.921875 -19.15625 -1.921875 C -24.257812 -1.921875 -29.023438 -2.632812 -33.453125 -4.0625 C -37.796875 -5.5 -42.125 -7.476562 -46.4375 -10 L -47.703125 -10.765625 L -46.984375 -12.03125 L -45.1875 -15.203125 L -44.53125 -16.390625 L -43.265625 -15.859375 C -39.953125 -14.378906 -36.28125 -13.125 -32.25 -12.09375 Z M -32.25 -12.09375 "/></g></g></g><g clip-path="url(#4d9f1cfbba)"><g clip-path="url(#2b9869c9b0)"><path fill="#00e0b6" d="M 192.277344 88.628906 L 204.253906 88.628906 L 204.253906 106.3125 L 192.277344 106.3125 Z M 192.277344 88.628906 " fill-opacity="1" fill-rule="nonzero"/></g></g><g clip-path="url(#058987a32b)"><g clip-path="url(#1b719d9681)"><path fill="#00e0b6" d="M 135.566406 88.628906 L 147.539062 88.628906 L 147.539062 106.3125 L 135.566406 106.3125 Z M 135.566406 88.628906 " fill-opacity="1" fill-rule="nonzero"/></g></g></svg>