<svg xmlns="http://www.w3.org/2000/svg" xmlns:xlink="http://www.w3.org/1999/xlink" width="400" zoomAndPan="magnify" viewBox="0 0 300 187.499995" height="250" preserveAspectRatio="xMidYMid meet" version="1.0"><defs><g/><clipPath id="745713b6bf"><path d="M 109.496094 88.628906 L 121.472656 88.628906 L 121.472656 106.3125 L 109.496094 106.3125 Z M 109.496094 88.628906 " clip-rule="nonzero"/></clipPath><clipPath id="b62d8804c0"><path d="M 115.484375 88.628906 C 112.175781 88.628906 109.496094 92.582031 109.496094 97.460938 C 109.496094 102.335938 112.175781 106.289062 115.484375 106.289062 C 118.789062 106.289062 121.472656 102.335938 121.472656 97.460938 C 121.472656 92.582031 118.789062 88.628906 115.484375 88.628906 Z M 115.484375 88.628906 " clip-rule="nonzero"/></clipPath><clipPath id="4cd2be0602"><path d="M 52.78125 88.628906 L 64.757812 88.628906 L 64.757812 106.3125 L 52.78125 106.3125 Z M 52.78125 88.628906 " clip-rule="nonzero"/></clipPath><clipPath id="d02a0c4f12"><path d="M 58.769531 88.628906 C 55.460938 88.628906 52.78125 92.582031 52.78125 97.460938 C 52.78125 102.335938 55.460938 106.289062 58.769531 106.289062 C 62.074219 106.289062 64.757812 102.335938 64.757812 97.460938 C 64.757812 92.582031 62.074219 88.628906 58.769531 88.628906 Z M 58.769531 88.628906 " clip-rule="nonzero"/></clipPath></defs><g fill="#00e0b6" fill-opacity="1"><g transform="translate(14.693413, 112.948795)"><g><path d="M 5.625 15.375 C 5.507812 15.375 5.378906 15.375 5.234375 15.375 C 5.097656 15.375 4.96875 15.375 4.84375 15.375 C 4.726562 15.375 4.609375 15.363281 4.484375 15.34375 C 4.367188 15.320312 4.25 15.3125 4.125 15.3125 C 4.007812 15.3125 3.890625 15.300781 3.765625 15.28125 C 3.648438 15.269531 3.53125 15.253906 3.40625 15.234375 C 3.289062 15.210938 3.179688 15.191406 3.078125 15.171875 C 2.984375 15.148438 2.875 15.128906 2.75 15.109375 C 2.632812 15.085938 2.523438 15.066406 2.421875 15.046875 C 2.328125 15.023438 2.21875 15 2.09375 14.96875 C 1.0625 14.6875 0.222656 14.34375 -0.421875 13.9375 L -1.375 13.40625 L -1.078125 12.328125 L 0.125 7.84375 L 0.59375 5.921875 L 2.34375 6.875 C 2.695312 7.113281 3.15625 7.316406 3.71875 7.484375 C 4.3125 7.640625 4.988281 7.71875 5.75 7.71875 C 6.101562 7.71875 6.429688 7.695312 6.734375 7.65625 C 7.035156 7.613281 7.34375 7.535156 7.65625 7.421875 C 7.894531 7.335938 8.15625 7.21875 8.4375 7.0625 C 8.71875 6.90625 8.976562 6.707031 9.21875 6.46875 C 9.8125 5.988281 10.367188 5.289062 10.890625 4.375 C 11.453125 3.414062 12.03125 2.195312 12.625 0.71875 L 13.234375 -0.84375 L 11.546875 -0.84375 L 11.140625 -1.734375 L -1.015625 -29.078125 L -1.609375 -30.453125 L -0.234375 -31.0625 L 4.546875 -33.21875 L 5.921875 -33.8125 L 6.53125 -32.4375 L 16.578125 -9.9375 L 24.359375 -32.078125 L 24.890625 -33.578125 L 26.328125 -32.96875 L 31.296875 -31.0625 L 32.671875 -30.515625 L 32.140625 -29.140625 L 20.703125 2.09375 C 20.546875 2.570312 20.378906 3.039062 20.203125 3.5 C 20.023438 3.957031 19.832031 4.40625 19.625 4.84375 C 19.425781 5.28125 19.226562 5.695312 19.03125 6.09375 C 18.832031 6.5 18.632812 6.878906 18.4375 7.234375 C 18.238281 7.597656 18.039062 7.957031 17.84375 8.3125 C 17.320312 9.15625 16.769531 9.925781 16.1875 10.625 C 15.613281 11.320312 15.003906 11.929688 14.359375 12.453125 C 13.722656 13.003906 13.054688 13.46875 12.359375 13.84375 C 11.660156 14.226562 10.953125 14.519531 10.234375 14.71875 C 8.796875 15.15625 7.257812 15.375 5.625 15.375 Z M 5.625 15.375 "/></g></g></g><g fill="#00e0b6" fill-opacity="1"><g transform="translate(45.989928, 112.948795)"><g><path d="M 26.390625 -15.5625 C 26.390625 -16.957031 26.171875 -18.273438 25.734375 -19.515625 C 25.296875 -20.703125 24.695312 -21.757812 23.9375 -22.6875 C 23.65625 -22.957031 23.375 -23.222656 23.09375 -23.484375 C 22.820312 -23.742188 22.523438 -23.984375 22.203125 -24.203125 C 21.878906 -24.421875 21.539062 -24.613281 21.1875 -24.78125 C 20.707031 -25.050781 20.1875 -25.242188 19.625 -25.359375 C 19.070312 -25.484375 18.492188 -25.546875 17.890625 -25.546875 C 15.222656 -25.546875 13.148438 -24.691406 11.671875 -22.984375 C 10.148438 -21.179688 9.390625 -18.742188 9.390625 -15.671875 C 9.390625 -14.273438 9.609375 -12.960938 10.046875 -11.734375 C 10.128906 -11.535156 10.207031 -11.332031 10.28125 -11.125 C 10.363281 -10.925781 10.457031 -10.726562 10.5625 -10.53125 C 10.664062 -10.332031 10.765625 -10.140625 10.859375 -9.953125 C 10.960938 -9.773438 11.0625 -9.609375 11.15625 -9.453125 C 11.257812 -9.296875 11.367188 -9.125 11.484375 -8.9375 C 11.609375 -8.757812 11.75 -8.613281 11.90625 -8.5 C 12.144531 -8.175781 12.40625 -7.882812 12.6875 -7.625 C 12.96875 -7.363281 13.265625 -7.125 13.578125 -6.90625 C 13.898438 -6.6875 14.242188 -6.5 14.609375 -6.34375 C 15.078125 -6.0625 15.59375 -5.859375 16.15625 -5.734375 C 16.71875 -5.617188 17.296875 -5.5625 17.890625 -5.5625 C 19.242188 -5.5625 20.441406 -5.800781 21.484375 -6.28125 C 22.003906 -6.519531 22.472656 -6.796875 22.890625 -7.109375 C 23.304688 -7.429688 23.695312 -7.816406 24.0625 -8.265625 C 24.8125 -9.097656 25.390625 -10.132812 25.796875 -11.375 C 26.191406 -12.601562 26.390625 -14 26.390625 -15.5625 Z M 0.890625 -15.5625 C 0.890625 -18.269531 1.332031 -20.722656 2.21875 -22.921875 C 3.09375 -25.117188 4.285156 -26.984375 5.796875 -28.515625 C 7.316406 -30.046875 9.113281 -31.234375 11.1875 -32.078125 C 13.257812 -32.910156 15.492188 -33.328125 17.890625 -33.328125 C 18.492188 -33.328125 19.070312 -33.296875 19.625 -33.234375 C 20.1875 -33.179688 20.742188 -33.101562 21.296875 -33 C 21.859375 -32.90625 22.410156 -32.773438 22.953125 -32.609375 C 23.492188 -32.453125 24.019531 -32.273438 24.53125 -32.078125 C 25.570312 -31.679688 26.539062 -31.179688 27.4375 -30.578125 C 28.332031 -29.984375 29.179688 -29.304688 29.984375 -28.546875 C 31.492188 -26.992188 32.691406 -25.117188 33.578125 -22.921875 C 34.453125 -20.765625 34.890625 -18.347656 34.890625 -15.671875 C 34.890625 -13.003906 34.46875 -10.570312 33.625 -8.375 C 32.75 -6.1875 31.554688 -4.3125 30.046875 -2.75 C 29.285156 -1.957031 28.445312 -1.25 27.53125 -0.625 C 26.613281 -0.0078125 25.632812 0.515625 24.59375 0.953125 C 22.519531 1.796875 20.285156 2.21875 17.890625 2.21875 C 16.691406 2.21875 15.523438 2.109375 14.390625 1.890625 C 13.253906 1.671875 12.164062 1.335938 11.125 0.890625 C 9.050781 0.015625 7.253906 -1.207031 5.734375 -2.78125 C 4.222656 -4.351562 3.03125 -6.238281 2.15625 -8.4375 C 1.3125 -10.59375 0.890625 -12.96875 0.890625 -15.5625 Z M 0.890625 -15.5625 "/></g></g></g><g fill="#00e0b6" fill-opacity="1"><g transform="translate(81.774464, 112.948795)"><g><path d="M 11.375 -10.296875 C 11.375 -8.492188 11.691406 -7.21875 12.328125 -6.46875 C 12.921875 -5.789062 13.800781 -5.453125 14.96875 -5.453125 C 15.601562 -5.453125 16.21875 -5.53125 16.8125 -5.6875 C 17.457031 -5.84375 18.015625 -6.019531 18.484375 -6.21875 L 20.046875 -6.875 L 20.53125 -5.265625 L 21.84375 -0.890625 L 22.203125 0.359375 L 21 0.890625 C 20.207031 1.253906 19.234375 1.554688 18.078125 1.796875 C 16.921875 2.078125 15.644531 2.21875 14.25 2.21875 C 12.6875 2.21875 11.226562 2 9.875 1.5625 C 8.519531 1.082031 7.320312 0.34375 6.28125 -0.65625 C 5.25 -1.65625 4.429688 -2.910156 3.828125 -4.421875 C 3.273438 -5.898438 3 -7.675781 3 -9.75 L 3 -45.78125 L 11.375 -45.78125 Z M 11.375 -10.296875 "/></g></g></g><g fill="#00e0b6" fill-opacity="1"><g transform="translate(102.479232, 112.948795)"><g><path d="M 26.390625 -15.5625 C 26.390625 -16.957031 26.171875 -18.273438 25.734375 -19.515625 C 25.296875 -20.703125 24.695312 -21.757812 23.9375 -22.6875 C 23.65625 -22.957031 23.375 -23.222656 23.09375 -23.484375 C 22.820312 -23.742188 22.523438 -23.984375 22.203125 -24.203125 C 21.878906 -24.421875 21.539062 -24.613281 21.1875 -24.78125 C 20.707031 -25.050781 20.1875 -25.242188 19.625 -25.359375 C 19.070312 -25.484375 18.492188 -25.546875 17.890625 -25.546875 C 15.222656 -25.546875 13.148438 -24.691406 11.671875 -22.984375 C 10.148438 -21.179688 9.390625 -18.742188 9.390625 -15.671875 C 9.390625 -14.273438 9.609375 -12.960938 10.046875 -11.734375 C 10.128906 -11.535156 10.207031 -11.332031 10.28125 -11.125 C 10.363281 -10.925781 10.457031 -10.726562 10.5625 -10.53125 C 10.664062 -10.332031 10.765625 -10.140625 10.859375 -9.953125 C 10.960938 -9.773438 11.0625 -9.609375 11.15625 -9.453125 C 11.257812 -9.296875 11.367188 -9.125 11.484375 -8.9375 C 11.609375 -8.757812 11.75 -8.613281 11.90625 -8.5 C 12.144531 -8.175781 12.40625 -7.882812 12.6875 -7.625 C 12.96875 -7.363281 13.265625 -7.125 13.578125 -6.90625 C 13.898438 -6.6875 14.242188 -6.5 14.609375 -6.34375 C 15.078125 -6.0625 15.59375 -5.859375 16.15625 -5.734375 C 16.71875 -5.617188 17.296875 -5.5625 17.890625 -5.5625 C 19.242188 -5.5625 20.441406 -5.800781 21.484375 -6.28125 C 22.003906 -6.519531 22.472656 -6.796875 22.890625 -7.109375 C 23.304688 -7.429688 23.695312 -7.816406 24.0625 -8.265625 C 24.8125 -9.097656 25.390625 -10.132812 25.796875 -11.375 C 26.191406 -12.601562 26.390625 -14 26.390625 -15.5625 Z M 0.890625 -15.5625 C 0.890625 -18.269531 1.332031 -20.722656 2.21875 -22.921875 C 3.09375 -25.117188 4.285156 -26.984375 5.796875 -28.515625 C 7.316406 -30.046875 9.113281 -31.234375 11.1875 -32.078125 C 13.257812 -32.910156 15.492188 -33.328125 17.890625 -33.328125 C 18.492188 -33.328125 19.070312 -33.296875 19.625 -33.234375 C 20.1875 -33.179688 20.742188 -33.101562 21.296875 -33 C 21.859375 -32.90625 22.410156 -32.773438 22.953125 -32.609375 C 23.492188 -32.453125 24.019531 -32.273438 24.53125 -32.078125 C 25.570312 -31.679688 26.539062 -31.179688 27.4375 -30.578125 C 28.332031 -29.984375 29.179688 -29.304688 29.984375 -28.546875 C 31.492188 -26.992188 32.691406 -25.117188 33.578125 -22.921875 C 34.453125 -20.765625 34.890625 -18.347656 34.890625 -15.671875 C 34.890625 -13.003906 34.46875 -10.570312 33.625 -8.375 C 32.75 -6.1875 31.554688 -4.3125 30.046875 -2.75 C 29.285156 -1.957031 28.445312 -1.25 27.53125 -0.625 C 26.613281 -0.0078125 25.632812 0.515625 24.59375 0.953125 C 22.519531 1.796875 20.285156 2.21875 17.890625 2.21875 C 16.691406 2.21875 15.523438 2.109375 14.390625 1.890625 C 13.253906 1.671875 12.164062 1.335938 11.125 0.890625 C 9.050781 0.015625 7.253906 -1.207031 5.734375 -2.78125 C 4.222656 -4.351562 3.03125 -6.238281 2.15625 -8.4375 C 1.3125 -10.59375 0.890625 -12.96875 0.890625 -15.5625 Z M 0.890625 -15.5625 "/></g></g></g><g fill="#00e0b6" fill-opacity="1"><g transform="translate(138.263767, 112.948795)"><g/></g></g><g fill="#00e0b6" fill-opacity="1"><g transform="translate(156.215883, 112.948795)"><g><path d="M 21.484375 -37.15625 C 20.722656 -37.5625 19.882812 -37.941406 18.96875 -38.296875 C 18.769531 -38.335938 18.570312 -38.390625 18.375 -38.453125 C 18.175781 -38.515625 17.96875 -38.5625 17.75 -38.59375 C 17.53125 -38.632812 17.300781 -38.664062 17.0625 -38.6875 C 16.820312 -38.707031 16.582031 -38.71875 16.34375 -38.71875 C 16.175781 -38.71875 16.019531 -38.71875 15.875 -38.71875 C 15.738281 -38.71875 15.609375 -38.707031 15.484375 -38.6875 C 15.367188 -38.664062 15.253906 -38.632812 15.140625 -38.59375 C 15.023438 -38.5625 14.90625 -38.523438 14.78125 -38.484375 C 14.664062 -38.441406 14.554688 -38.398438 14.453125 -38.359375 C 14.347656 -38.316406 14.242188 -38.265625 14.140625 -38.203125 C 14.046875 -38.148438 13.957031 -38.09375 13.875 -38.03125 C 13.800781 -37.96875 13.722656 -37.894531 13.640625 -37.8125 C 13.566406 -37.738281 13.488281 -37.660156 13.40625 -37.578125 C 13.039062 -37.222656 12.757812 -36.753906 12.5625 -36.171875 C 12.363281 -35.597656 12.265625 -34.867188 12.265625 -33.984375 L 12.265625 -31.484375 L 21.484375 -31.484375 L 21.484375 -23.8125 L 12.265625 -23.8125 L 12.265625 1.5 L 3.890625 1.5 L 3.890625 -23.8125 L -0.890625 -23.8125 L -0.890625 -31.484375 L 3.890625 -31.484375 L 3.890625 -33.625 C 3.890625 -35.539062 4.1875 -37.300781 4.78125 -38.90625 C 5.34375 -40.457031 6.160156 -41.8125 7.234375 -42.96875 C 8.273438 -44.125 9.570312 -45 11.125 -45.59375 C 12.601562 -46.195312 14.222656 -46.5 15.984375 -46.5 C 16.421875 -46.5 16.847656 -46.488281 17.265625 -46.46875 C 17.679688 -46.445312 18.085938 -46.40625 18.484375 -46.34375 C 18.890625 -46.289062 19.28125 -46.222656 19.65625 -46.140625 C 20.039062 -46.054688 20.410156 -45.957031 20.765625 -45.84375 C 22.046875 -45.4375 23.28125 -44.9375 24.46875 -44.34375 L 25.671875 -43.75 L 25.25 -42.546875 L 23.640625 -38 L 23.046875 -36.328125 Z M 21.484375 -37.15625 "/></g></g></g><g fill="#00e0b6" fill-opacity="1"><g transform="translate(177.040335, 112.948795)"><g><path d="M 32.609375 1.796875 C 31.535156 1.796875 30.550781 1.6875 29.65625 1.46875 C 28.757812 1.25 27.953125 0.898438 27.234375 0.421875 C 26.429688 -0.140625 25.769531 -0.816406 25.25 -1.609375 C 24.132812 -0.691406 22.921875 0.0820312 21.609375 0.71875 C 19.566406 1.71875 17.351562 2.21875 14.96875 2.21875 C 13.445312 2.21875 11.988281 1.976562 10.59375 1.5 C 9.113281 1.019531 7.804688 0.242188 6.671875 -0.828125 C 5.535156 -1.910156 4.628906 -3.289062 3.953125 -4.96875 C 3.316406 -6.601562 3 -8.578125 3 -10.890625 L 3 -32.609375 L 11.375 -32.609375 L 11.375 -11.609375 C 11.375 -9.535156 11.769531 -7.976562 12.5625 -6.9375 C 13.28125 -6.019531 14.421875 -5.5625 15.984375 -5.5625 C 17.453125 -5.5625 18.847656 -5.84375 20.171875 -6.40625 C 20.722656 -6.6875 21.28125 -6.992188 21.84375 -7.328125 C 22.40625 -7.671875 22.90625 -8.019531 23.34375 -8.375 L 23.34375 -32.609375 L 31.71875 -32.609375 L 31.71875 -8.078125 C 31.71875 -7.359375 31.773438 -6.820312 31.890625 -6.46875 C 32.015625 -6.144531 32.15625 -5.925781 32.3125 -5.8125 C 32.476562 -5.644531 32.660156 -5.539062 32.859375 -5.5 C 33.128906 -5.425781 33.425781 -5.390625 33.75 -5.390625 L 35.734375 -5.390625 L 35.1875 -3.46875 L 34.046875 0.71875 L 33.75 1.796875 Z M 32.609375 1.796875 "/></g></g></g><g fill="#00e0b6" fill-opacity="1"><g transform="translate(213.183921, 112.948795)"><g><path d="M 11.484375 -29.859375 C 11.804688 -30.179688 12.125 -30.460938 12.4375 -30.703125 C 12.757812 -30.941406 13.101562 -31.160156 13.46875 -31.359375 C 15.457031 -32.671875 17.789062 -33.328125 20.46875 -33.328125 C 22.425781 -33.328125 24.160156 -33.019531 25.671875 -32.40625 C 27.191406 -31.789062 28.46875 -30.863281 29.5 -29.625 C 31.457031 -27.226562 32.4375 -24.113281 32.4375 -20.28125 L 32.4375 1.5 L 24.0625 1.5 L 24.0625 -19.6875 C 24.0625 -20.363281 24.007812 -20.976562 23.90625 -21.53125 C 23.8125 -22.09375 23.671875 -22.59375 23.484375 -23.03125 C 23.304688 -23.476562 23.078125 -23.859375 22.796875 -24.171875 C 22.554688 -24.492188 22.285156 -24.765625 21.984375 -24.984375 C 21.691406 -25.203125 21.34375 -25.359375 20.9375 -25.453125 C 20.539062 -25.554688 20.082031 -25.609375 19.5625 -25.609375 C 18.84375 -25.609375 18.128906 -25.46875 17.421875 -25.1875 C 16.660156 -24.914062 15.921875 -24.519531 15.203125 -24 C 14.484375 -23.4375 13.804688 -22.816406 13.171875 -22.140625 C 12.929688 -21.816406 12.671875 -21.484375 12.390625 -21.140625 C 12.109375 -20.804688 11.867188 -20.484375 11.671875 -20.171875 L 11.671875 1.5 L 3.296875 1.5 L 3.296875 -32.609375 L 11.484375 -32.609375 Z M 11.484375 -29.859375 "/></g></g></g><g fill="#00e0b6" fill-opacity="1"><g transform="translate(248.609417, 112.948795)"><g><path d="M 16.578125 2.21875 C 15.503906 2.21875 14.46875 2.109375 13.46875 1.890625 C 12.46875 1.671875 11.488281 1.359375 10.53125 0.953125 C 8.65625 0.117188 7.019531 -1.078125 5.625 -2.640625 C 4.226562 -4.191406 3.148438 -6.046875 2.390625 -8.203125 C 1.597656 -10.359375 1.203125 -12.75 1.203125 -15.375 C 1.203125 -17.894531 1.597656 -20.25 2.390625 -22.4375 C 3.191406 -24.632812 4.289062 -26.53125 5.6875 -28.125 C 7.039062 -29.71875 8.65625 -30.972656 10.53125 -31.890625 C 11.445312 -32.367188 12.414062 -32.726562 13.4375 -32.96875 C 14.457031 -33.207031 15.484375 -33.328125 16.515625 -33.328125 C 17.273438 -33.328125 18.003906 -33.273438 18.703125 -33.171875 C 19.398438 -33.078125 20.078125 -32.921875 20.734375 -32.703125 C 21.390625 -32.484375 22.019531 -32.210938 22.625 -31.890625 C 22.820312 -31.773438 23.03125 -31.644531 23.25 -31.5 C 23.46875 -31.363281 23.675781 -31.238281 23.875 -31.125 L 23.875 -45.78125 L 32.25 -45.78125 L 32.25 -7.546875 C 32.25 -6.585938 32.390625 -6.023438 32.671875 -5.859375 C 33.148438 -5.546875 33.691406 -5.390625 34.296875 -5.390625 L 36.265625 -5.390625 L 35.734375 -3.46875 L 34.59375 0.71875 L 34.296875 1.796875 L 33.15625 1.796875 C 29.757812 1.796875 27.304688 0.695312 25.796875 -1.5 C 25.078125 -0.820312 24.257812 -0.179688 23.34375 0.421875 C 21.507812 1.617188 19.253906 2.21875 16.578125 2.21875 Z M 17.78125 -5.5625 C 19.007812 -5.5625 20.179688 -5.863281 21.296875 -6.46875 C 22.296875 -6.976562 23.15625 -7.613281 23.875 -8.375 L 23.875 -22.734375 C 23.5625 -23.097656 23.203125 -23.425781 22.796875 -23.71875 C 22.398438 -24.019531 21.941406 -24.332031 21.421875 -24.65625 C 20.347656 -25.332031 19.113281 -25.671875 17.71875 -25.671875 C 17.113281 -25.671875 16.539062 -25.609375 16 -25.484375 C 15.46875 -25.367188 14.960938 -25.191406 14.484375 -24.953125 C 13.960938 -24.671875 13.492188 -24.359375 13.078125 -24.015625 C 12.660156 -23.679688 12.269531 -23.296875 11.90625 -22.859375 C 11.1875 -21.984375 10.648438 -20.925781 10.296875 -19.6875 C 10.171875 -19.289062 10.054688 -18.863281 9.953125 -18.40625 C 9.859375 -17.945312 9.789062 -17.488281 9.75 -17.03125 C 9.707031 -16.570312 9.6875 -16.082031 9.6875 -15.5625 C 9.6875 -14.039062 9.910156 -12.664062 10.359375 -11.4375 C 10.753906 -10.238281 11.332031 -9.195312 12.09375 -8.3125 C 12.25 -8.070312 12.425781 -7.863281 12.625 -7.6875 C 12.820312 -7.507812 13.03125 -7.328125 13.25 -7.140625 C 13.46875 -6.960938 13.6875 -6.804688 13.90625 -6.671875 C 14.132812 -6.535156 14.382812 -6.40625 14.65625 -6.28125 C 14.820312 -6.195312 15.003906 -6.113281 15.203125 -6.03125 C 15.398438 -5.957031 15.609375 -5.890625 15.828125 -5.828125 C 16.046875 -5.773438 16.253906 -5.726562 16.453125 -5.6875 C 16.648438 -5.644531 16.859375 -5.613281 17.078125 -5.59375 C 17.304688 -5.570312 17.539062 -5.5625 17.78125 -5.5625 Z M 17.78125 -5.5625 "/></g></g></g><g fill="#00e0b6" fill-opacity="1"><g transform="translate(111.871915, 138.386819)"><g><path d="M -32.25 -12.09375 C -28.257812 -11.09375 -23.890625 -10.59375 -19.140625 -10.59375 C -14.398438 -10.59375 -10.054688 -11.09375 -6.109375 -12.09375 C -2.117188 -13.125 1.570312 -14.378906 4.96875 -15.859375 L 6.21875 -16.390625 L 6.875 -15.203125 L 8.671875 -12.03125 L 9.390625 -10.765625 L 8.078125 -10 C 3.566406 -7.4375 -0.878906 -5.457031 -5.265625 -4.0625 C -9.691406 -2.632812 -14.320312 -1.921875 -19.15625 -1.921875 C -24.257812 -1.921875 -29.023438 -2.632812 -33.453125 -4.0625 C -37.796875 -5.5 -42.125 -7.476562 -46.4375 -10 L -47.703125 -10.765625 L -46.984375 -12.03125 L -45.1875 -15.203125 L -44.53125 -16.390625 L -43.265625 -15.859375 C -39.953125 -14.378906 -36.28125 -13.125 -32.25 -12.09375 Z M -32.25 -12.09375 "/></g></g></g><g clip-path="url(#745713b6bf)"><g clip-path="url(#b62d8804c0)"><path fill="#00e0b6" d="M 109.496094 88.628906 L 121.472656 88.628906 L 121.472656 106.3125 L 109.496094 106.3125 Z M 109.496094 88.628906 " fill-opacity="1" fill-rule="nonzero"/></g></g><g clip-path="url(#4cd2be0602)"><g clip-path="url(#d02a0c4f12)"><path fill="#00e0b6" d="M 52.78125 88.628906 L 64.757812 88.628906 L 64.757812 106.3125 L 52.78125 106.3125 Z M 52.78125 88.628906 " fill-opacity="1" fill-rule="nonzero"/></g></g></svg>